# xmcd
# 
# Track frame offsets:
#     150
#     16772
#     28135
#     45650
#     56697
# 
# Disc length: 988
# 
# Revision: 2
# Processed by: cddbd v1.5.2PL0 Copyright (c) Steve Scherf et al.
# Submitted via: fre:ac v1.0.17
# 
DISCID=3703da05
DTITLE=the Hang-Ups - Comin' Through
DYEAR=1993
DGENRE=Rock and Roll
TTITLE0=Comin' Through
TTITLE1=Runway
TTITLE2=Lesson #1
TTITLE3=This is the Hand
TTITLE4=Eight Miles High
EXTD=
EXTT0=
EXTT1=
EXTT2=
EXTT3=
EXTT4=
PLAYORDER=
